<svg xmlns="http://www.w3.org/2000/svg" viewBox="0 0 93.43 87.58"><defs><style>.cls-1{fill:#5bba4f;}</style></defs><g id="Layer_2" data-name="Layer 2"><g id="Layer_1-2" data-name="Layer 1"><path class="cls-1" d="M0,2.55A2.68,2.68,0,0,1,.64.75,2.36,2.36,0,0,1,2.55,0h17a3.25,3.25,0,0,1,1.86.7,2.17,2.17,0,0,1,1,1.85v81c0,1.7-.95,2.55-2.84,2.55h-17A2.25,2.25,0,0,1,0,83.52Z"/><path class="cls-1" d="M49.73,63.18a16.6,16.6,0,0,0,3.39,2.63,24.78,24.78,0,0,0,3.51,1.74,19.5,19.5,0,0,0,2.95,1,9.93,9.93,0,0,0,1.74.29c.74,0,1.67,0,2.81-.09a15.28,15.28,0,0,0,3.28-.52,6.75,6.75,0,0,0,2.69-1.42A3.47,3.47,0,0,0,71.23,64a4.65,4.65,0,0,0-.63-2.58,5.13,5.13,0,0,0-1.86-1.62,15.13,15.13,0,0,0-3-1.19c-1.18-.35-2.51-.76-4-1.22a47.33,47.33,0,0,1-11.48-4.46,25.79,25.79,0,0,1-7.16-5.83,19,19,0,0,1-3.68-6.92,28.64,28.64,0,0,1-1-7.83,19.73,19.73,0,0,1,1.91-8.75,19.29,19.29,0,0,1,5.45-6.75,25.54,25.54,0,0,1,8.46-4.35A39.29,39.29,0,0,1,72,11.56a27.34,27.34,0,0,1,6.09,1.92,30,30,0,0,1,5.65,3.36,44.13,44.13,0,0,1,5.48,4.9,3.58,3.58,0,0,1,1,2.17A3,3,0,0,1,89,26.08q-2.27,1.86-4.32,3.65c-1.37,1.2-2.79,2.54-4.26,4a3.24,3.24,0,0,1-1.39.73,3,3,0,0,1-1.33,0,4,4,0,0,1-1.22-.58,4.86,4.86,0,0,1-1-1,10.16,10.16,0,0,0-4.64-3A17,17,0,0,0,65.9,29a9,9,0,0,0-4.52,1,3.07,3.07,0,0,0-1.57,3A3.2,3.2,0,0,0,61,35.38a7.81,7.81,0,0,0,2.49,1.37,22.37,22.37,0,0,0,3.13.84c1.1.21,2.11.45,3,.72A89.93,89.93,0,0,1,79.17,42a29.48,29.48,0,0,1,7.54,4.84,20.09,20.09,0,0,1,5,6.87,24,24,0,0,1,1.77,9.74,22.38,22.38,0,0,1-2.29,10.26,21.9,21.9,0,0,1-6.29,7.59A28.68,28.68,0,0,1,75.38,86a41.45,41.45,0,0,1-11.8,1.62,42.55,42.55,0,0,1-7.3-.64,34,34,0,0,1-7.19-2.06,32.18,32.18,0,0,1-6.61-3.65,25.69,25.69,0,0,1-5.56-5.42,6.07,6.07,0,0,1-1-1.71,4.8,4.8,0,0,1-.29-1.77A4.35,4.35,0,0,1,36,70.74a3,3,0,0,1,1-1.24L44.51,62A2.64,2.64,0,0,1,47,61.21,8.24,8.24,0,0,1,49.73,63.18Z"/></g></g></svg>