<svg xmlns="http://www.w3.org/2000/svg" viewBox="0 0 470.08 110.76"><defs><style>.cls-1{fill:#5bba4f;}.cls-2{fill:#172639;}</style></defs><g id="Layer_2" data-name="Layer 2"><g id="Layer_1-2" data-name="Layer 1"><path class="cls-1" d="M0,9.77A3.18,3.18,0,0,1,.76,7.64,2.82,2.82,0,0,1,3,6.75H23.27a3.88,3.88,0,0,1,2.2.82,2.57,2.57,0,0,1,1.17,2.2v96.17c0,2-1.13,3-3.37,3H3a2.68,2.68,0,0,1-3-3Z"/><path class="cls-1" d="M59.06,81.78a20,20,0,0,0,4,3.13A29.09,29.09,0,0,0,67.25,87a24.22,24.22,0,0,0,3.51,1.14,11.25,11.25,0,0,0,2.07.34c.87,0,2,0,3.34-.1a17.66,17.66,0,0,0,3.89-.62,8.12,8.12,0,0,0,3.2-1.68,4.18,4.18,0,0,0,1.34-3.31,5.39,5.39,0,0,0-.76-3.06,6.07,6.07,0,0,0-2.2-1.93,18,18,0,0,0-3.55-1.41c-1.4-.41-3-.9-4.71-1.45a56.09,56.09,0,0,1-13.63-5.3,30.48,30.48,0,0,1-8.5-6.91,22.42,22.42,0,0,1-4.37-8.23,34,34,0,0,1-1.24-9.29,23.43,23.43,0,0,1,2.27-10.4,22.94,22.94,0,0,1,6.47-8,30.79,30.79,0,0,1,10.05-5.16,43.47,43.47,0,0,1,13-1.82,43.42,43.42,0,0,1,8.12.72,32.36,32.36,0,0,1,7.23,2.27,35.61,35.61,0,0,1,6.71,4A53.48,53.48,0,0,1,106,32.56a4.3,4.3,0,0,1,1.2,2.58,3.57,3.57,0,0,1-1.55,2.58q-2.68,2.2-5.13,4.34c-1.63,1.42-3.31,3-5.06,4.75a3.87,3.87,0,0,1-1.65.86,3.36,3.36,0,0,1-1.58,0A4.46,4.46,0,0,1,90.79,47a6,6,0,0,1-1.24-1.17,12,12,0,0,0-5.5-3.62,20.19,20.19,0,0,0-5.78-.93A10.59,10.59,0,0,0,72.9,42.4,3.59,3.59,0,0,0,71,46a3.81,3.81,0,0,0,1.34,2.79,9.41,9.41,0,0,0,3,1.62,27.32,27.32,0,0,0,3.72,1c1.3.25,2.51.54,3.61.86A106.9,106.9,0,0,1,94,56.58a34.81,34.81,0,0,1,9,5.75,23.77,23.77,0,0,1,5.88,8.16A28.5,28.5,0,0,1,111,82.05a26.51,26.51,0,0,1-2.72,12.19,26,26,0,0,1-7.47,9,33.88,33.88,0,0,1-11.25,5.58,49.31,49.31,0,0,1-14,1.93,51.59,51.59,0,0,1-8.67-.76,41.47,41.47,0,0,1-8.54-2.44,38.61,38.61,0,0,1-7.84-4.34,30.53,30.53,0,0,1-6.61-6.44,7,7,0,0,1-1.14-2,5.57,5.57,0,0,1-.34-2.1,5.07,5.07,0,0,1,.41-1.89A3.63,3.63,0,0,1,44,89.28l8.87-8.88c1.11-.92,2.08-1.24,2.93-1A9.58,9.58,0,0,1,59.06,81.78Z"/><path class="cls-2" d="M128.58,9.77a3.12,3.12,0,0,1,.8-2.13,2.83,2.83,0,0,1,2.23-.89h14a3.12,3.12,0,0,1,1.06.2,3.48,3.48,0,0,1,1.07.62,4.3,4.3,0,0,1,.83,1,2.26,2.26,0,0,1,.34,1.23V50.66L187.51,8.88q1.37-2.13,3-2.13h19.68c1.24,0,1.86.27,1.86.82A2.49,2.49,0,0,1,211.26,9L174.91,51.35l42.4,54.86a4.28,4.28,0,0,1,1,2c0,.51-.49.76-1.45.76H196c-1.1,0-2.11-.71-3-2.14L160.59,65.6l-11.7,12.12v28.22q0,3-3.3,3h-14a2.68,2.68,0,0,1-3-3Z"/><path class="cls-2" d="M301.71,99.33a49.23,49.23,0,0,1-13.25,8.12,41.05,41.05,0,0,1-15.8,3A45,45,0,0,1,255,106.9a46,46,0,0,1-24.53-24,42.78,42.78,0,0,1-3.69-17.72,46.32,46.32,0,0,1,5.82-22.55,45,45,0,0,1,6.78-9.15,43.08,43.08,0,0,1,8.91-7.13A43.6,43.6,0,0,1,259,21.79a44.62,44.62,0,0,1,12.15-1.62,42.41,42.41,0,0,1,10.33,1.27,45.47,45.47,0,0,1,18.24,9.3,40.72,40.72,0,0,1,13.08,20,53.47,53.47,0,0,1,1.93,14.8,25.77,25.77,0,0,1-.18,3.34,4.07,4.07,0,0,1-.86,2.17,4,4,0,0,1-2.06,1.2,15,15,0,0,1-3.86.38h-61a23.28,23.28,0,0,0,3.4,8.78,26.38,26.38,0,0,0,6,6.47,24.88,24.88,0,0,0,7.5,4,25.59,25.59,0,0,0,8.12,1.34,27.63,27.63,0,0,0,6-.62,30.32,30.32,0,0,0,9.91-4,27.43,27.43,0,0,0,3.68-2.79.06.06,0,0,1,.07-.07,10.16,10.16,0,0,1,1.58-1.2,3.09,3.09,0,0,1,1.59-.45,3.2,3.2,0,0,1,1.41.41,5.11,5.11,0,0,1,1.55,1.38c1.24,1.51,2.29,2.78,3.16,3.78s1.59,1.86,2.14,2.55a10.69,10.69,0,0,1,1.2,1.79,3.29,3.29,0,0,1,.38,1.52C304.32,96.76,303.45,98.05,301.71,99.33ZM271.14,37.24a21.8,21.8,0,0,0-7.91,1.48,26.7,26.7,0,0,0-7.06,4,27.93,27.93,0,0,0-5.58,6,24.36,24.36,0,0,0-3.47,7.43h48.73a26.46,26.46,0,0,0-3.33-7.68,24.54,24.54,0,0,0-5.41-6,23.74,23.74,0,0,0-7.23-3.89A27,27,0,0,0,271.14,37.24Z"/><path class="cls-2" d="M362.49,109a33.61,33.61,0,0,1-10.22-1.66,24.57,24.57,0,0,1-8.33-4.58,21.39,21.39,0,0,1-5.61-7.37,23,23,0,0,1-2.07-10V38.89h-7.92a4.34,4.34,0,0,1-3-.89,3.77,3.77,0,0,1-1-3V25.18a3.45,3.45,0,0,1,1-2.81,4.62,4.62,0,0,1,3-.82h7.92q0-3.66,0-7.27t0-7.26a2.82,2.82,0,0,1,.86-2.17,7.86,7.86,0,0,1,2.65-1.41l2.82-1c1.1-.39,2.24-.76,3.41-1.13s2.31-.68,3.41-.93A12.93,12.93,0,0,1,352.23,0q2.13,0,2.79,1.17a6.4,6.4,0,0,1,.65,3.1q0,4.34,0,8.64c0,2.87,0,5.74,0,8.64h9.92a3.8,3.8,0,0,1,2.75.92,3.9,3.9,0,0,1,1,2.92v9.39a4.33,4.33,0,0,1-1,3.15,3.73,3.73,0,0,1-2.75,1H355.6V52c0,1.59,0,3.07,0,4.45s0,2.87,0,4.48V74a1.27,1.27,0,0,1,0,.28,1.35,1.35,0,0,0,0,.28v9q0,4.55,1.79,6.54c1.2,1.34,3.12,2,5.79,2a2.75,2.75,0,0,1,2.27,1,3.81,3.81,0,0,1,.82,2.47v9.57a3.46,3.46,0,0,1-3.78,3.79Z"/><path class="cls-2" d="M379.77,65.39a45,45,0,0,1,22.42-39.06A46.19,46.19,0,0,1,413,21.79a45.14,45.14,0,0,1,24,0,45.05,45.05,0,0,1,31.54,31.52,45.05,45.05,0,0,1-4.57,34.9,46.33,46.33,0,0,1-7.09,9.12,44.71,44.71,0,0,1-19.88,11.6,45.14,45.14,0,0,1-24,0,45.77,45.77,0,0,1-10.76-4.54A44.37,44.37,0,0,1,393,97.33,45.91,45.91,0,0,1,386,88.21a44.44,44.44,0,0,1-6.19-22.82Zm19.41,0a28.41,28.41,0,0,0,1.92,10.43,26.49,26.49,0,0,0,5.37,8.57,25.72,25.72,0,0,0,8.16,5.79,24.68,24.68,0,0,0,10.29,2.13A23.93,23.93,0,0,0,435,90.18a25,25,0,0,0,8-5.79,26.42,26.42,0,0,0,5.27-8.57,29.61,29.61,0,0,0,0-20.82A27.62,27.62,0,0,0,443,46.29a25.7,25.7,0,0,0-8-6,23,23,0,0,0-10.09-2.23,23.69,23.69,0,0,0-10.29,2.23,26.45,26.45,0,0,0-8.16,6A27.69,27.69,0,0,0,401.1,55,28.51,28.51,0,0,0,399.18,65.39Z"/></g></g></svg>