<svg xmlns="http://www.w3.org/2000/svg" viewBox="0 0 354.2 95.4"><defs><style>.cls-1{fill:#172639;}</style></defs><g id="Layer_2" data-name="Layer 2"><g id="Layer_1-2" data-name="Layer 1"><path class="cls-1" d="M0,10.55a2.59,2.59,0,0,1,.67-1.8A2.38,2.38,0,0,1,2.55,8H14.32a2.78,2.78,0,0,1,.89.17,2.9,2.9,0,0,1,.9.52,3.94,3.94,0,0,1,.7.82,1.94,1.94,0,0,1,.29,1V45L49.61,9.8A3.21,3.21,0,0,1,52.17,8H68.74c1.05,0,1.57.23,1.57.69a2.13,2.13,0,0,1-.7,1.22L39,45.56l35.7,46.19a3.62,3.62,0,0,1,.87,1.68c0,.43-.4.64-1.22.64H56.74a3.21,3.21,0,0,1-2.55-1.8L27,57.56,17.1,67.76V91.52c0,1.7-.93,2.55-2.78,2.55H2.55A2.25,2.25,0,0,1,0,91.52Z"/><path class="cls-1" d="M145.77,86a41.8,41.8,0,0,1-11.16,6.84,34.62,34.62,0,0,1-13.3,2.49,37.84,37.84,0,0,1-14.84-3,38.85,38.85,0,0,1-20.66-20.2,36,36,0,0,1-3.1-14.92,39,39,0,0,1,4.9-19,37.29,37.29,0,0,1,5.71-7.71,36.09,36.09,0,0,1,7.5-6,36.64,36.64,0,0,1,9-3.86A37.84,37.84,0,0,1,120,19.3a36,36,0,0,1,8.69,1.07,38.42,38.42,0,0,1,15.36,7.83A34.8,34.8,0,0,1,150,34.54,34.3,34.3,0,0,1,155.1,45a44.86,44.86,0,0,1,1.63,12.46,21.89,21.89,0,0,1-.15,2.81,3.45,3.45,0,0,1-.72,1.82,3.32,3.32,0,0,1-1.74,1,13,13,0,0,1-3.25.32H99.46a19.65,19.65,0,0,0,2.87,7.39,22.35,22.35,0,0,0,5,5.45A21.78,21.78,0,0,0,120.5,80.8a24,24,0,0,0,5-.52,26.91,26.91,0,0,0,4.5-1.39,25.37,25.37,0,0,0,3.85-2,23.46,23.46,0,0,0,3.1-2.35.05.05,0,0,1,.06-.06,8.35,8.35,0,0,1,1.33-1,2.53,2.53,0,0,1,1.34-.38,2.64,2.64,0,0,1,1.18.35,4.18,4.18,0,0,1,1.31,1.16c1,1.27,1.93,2.33,2.66,3.18s1.34,1.57,1.8,2.15a9.54,9.54,0,0,1,1,1.51,2.83,2.83,0,0,1,.31,1.27C148,83.79,147.24,84.88,145.77,86ZM120,33.68a18.47,18.47,0,0,0-6.67,1.24,22.42,22.42,0,0,0-5.94,3.39,23,23,0,0,0-4.69,5,20.36,20.36,0,0,0-2.93,6.26h41A22,22,0,0,0,138,43.15a20.49,20.49,0,0,0-4.55-5,20.11,20.11,0,0,0-6.08-3.28A22.84,22.84,0,0,0,120,33.68Z"/><path class="cls-1" d="M197,94.07a28.44,28.44,0,0,1-8.61-1.39,21,21,0,0,1-7-3.86,18.11,18.11,0,0,1-4.72-6.21,19.38,19.38,0,0,1-1.74-8.38V35.07H168.2a3.68,3.68,0,0,1-2.52-.75,3.2,3.2,0,0,1-.84-2.49V23.52a2.94,2.94,0,0,1,.84-2.37,3.91,3.91,0,0,1,2.52-.69h6.67q0-3.08,0-6.11t0-6.12a2.35,2.35,0,0,1,.72-1.82,6.2,6.2,0,0,1,2.23-1.19l2.38-.84c.93-.33,1.88-.65,2.87-1s1.94-.57,2.87-.78a10.86,10.86,0,0,1,2.31-.32,2.48,2.48,0,0,1,2.35,1,5.32,5.32,0,0,1,.55,2.61c0,2.44,0,4.86,0,7.28s0,4.84,0,7.27h8.34a3.21,3.21,0,0,1,2.32.78,3.27,3.27,0,0,1,.81,2.45V31.6a3.66,3.66,0,0,1-.81,2.66,3.13,3.13,0,0,1-2.32.81h-8.34v11c0,1.34,0,2.59,0,3.75s0,2.42,0,3.77v11a1,1,0,0,1,0,.23.9.9,0,0,0,0,.23v7.6q0,3.84,1.5,5.52t4.87,1.68a2.31,2.31,0,0,1,1.91.87,3.22,3.22,0,0,1,.7,2.09v8A2.92,2.92,0,0,1,197,94.07Z"/><path class="cls-1" d="M211.5,57.38a37.94,37.94,0,0,1,18.88-32.89,39.1,39.1,0,0,1,9.06-3.83,38.15,38.15,0,0,1,20.19,0,38.2,38.2,0,0,1,22.7,17.42,38,38,0,0,1,0,38.52,39.15,39.15,0,0,1-6,7.68A37.78,37.78,0,0,1,259.63,94a38.15,38.15,0,0,1-20.19,0,39.07,39.07,0,0,1-9.06-3.82,37.6,37.6,0,0,1-7.7-5.94,38.82,38.82,0,0,1-6-7.68,37.76,37.76,0,0,1-3.85-9.08A37.32,37.32,0,0,1,211.5,57.38Zm16.34,0a23.69,23.69,0,0,0,1.63,8.78A22,22,0,0,0,234,73.38a21.51,21.51,0,0,0,6.87,4.87A20.69,20.69,0,0,0,249.52,80,20.07,20.07,0,0,0,258,78.25a21,21,0,0,0,6.75-4.87,22.12,22.12,0,0,0,4.44-7.22,25,25,0,0,0,0-17.53,23.06,23.06,0,0,0-4.44-7.33,21.51,21.51,0,0,0-6.75-5,19.4,19.4,0,0,0-8.49-1.88,20,20,0,0,0-8.66,1.88,22,22,0,0,0-6.87,5,22.9,22.9,0,0,0-4.52,7.33A23.77,23.77,0,0,0,227.84,57.38Z"/><path class="cls-1" d="M333.1,63.76a13.83,13.83,0,0,1-.17,2.37,3.36,3.36,0,0,1-.58,1.45,2,2,0,0,1-1.08.7,6.91,6.91,0,0,1-1.65.17h-9.79a2.46,2.46,0,0,1-2-.87,3,3,0,0,1-.73-2c0-3.4,0-6.34.15-8.84a16.18,16.18,0,0,1,1.13-5.94,16.52,16.52,0,0,1,3.48-4.66,37.06,37.06,0,0,1,4.4-3.54c1.55-1.06,3.09-2.07,4.64-3a27.34,27.34,0,0,0,4.17-3.13,14.3,14.3,0,0,0,3-3.92,11.19,11.19,0,0,0,1.16-5.33,11.41,11.41,0,0,0-1.07-4.95,12.7,12.7,0,0,0-2.92-4,14,14,0,0,0-9.57-3.68,11.34,11.34,0,0,0-4.75,1,13.61,13.61,0,0,0-3.77,2.55,14.26,14.26,0,0,0-2.69,3.57,15.73,15.73,0,0,0-1.54,4.08,9.92,9.92,0,0,1-1.88,3.74,4.66,4.66,0,0,1-3.51,1.71h-8.06a2.3,2.3,0,0,1-2-.72,3.48,3.48,0,0,1-.63-1.54V27.3a26.31,26.31,0,0,1,2.4-11,27.26,27.26,0,0,1,6.29-8.64A29,29,0,0,1,314.73,2a30,30,0,0,1,10.95-2,30.57,30.57,0,0,1,10.9,2,28.93,28.93,0,0,1,9.07,5.46,26.22,26.22,0,0,1,6.23,8.35,24.4,24.4,0,0,1,2.32,10.6,26.79,26.79,0,0,1-1.57,9.83,23.4,23.4,0,0,1-3.91,6.72,26.19,26.19,0,0,1-5.07,4.64q-2.73,1.88-5.07,3.59a21.41,21.41,0,0,0-3.91,3.59,7,7,0,0,0-1.57,4.61ZM317.39,82.94a7.91,7.91,0,0,1,.44-2.78A2,2,0,0,1,319.94,79H329c.47,0,.94,0,1.42.06a4.11,4.11,0,0,1,1.34.32,2.6,2.6,0,0,1,1,.75,2.18,2.18,0,0,1,.41,1.42v8.58c0,.54,0,1-.06,1.51a4,4,0,0,1-.32,1.27,1.91,1.91,0,0,1-.78.9,2.81,2.81,0,0,1-1.45.32h-9.1a8.31,8.31,0,0,1-3.07-.44c-.7-.29-1.05-1-1.05-2.17Z"/></g></g></svg>